<mxfile host="app.diagrams.net" modified="2022-06-21T02:57:05.855Z" agent="5.0 (X11)" etag="mHy16YSHmqpUc8o-tFto" version="20.0.1" type="github">
  <diagram id="kLmN4EKAB4e_yHycUZNa" name="Page-1">
    <mxGraphModel dx="1386" dy="756" grid="1" gridSize="10" guides="1" tooltips="1" connect="1" arrows="1" fold="1" page="1" pageScale="1" pageWidth="850" pageHeight="1100" math="0" shadow="0">
      <root>
        <mxCell id="0" />
        <mxCell id="1" parent="0" />
        <mxCell id="GphbjgsX8QSrk0KPlg3Y-2" value="TaskQueue" style="swimlane;fontStyle=3;align=center;verticalAlign=top;childLayout=stackLayout;horizontal=1;startSize=26;horizontalStack=0;resizeParent=1;resizeParentMax=0;resizeLast=0;collapsible=1;marginBottom=0;" vertex="1" parent="1">
          <mxGeometry x="120" y="40" width="480" height="120" as="geometry" />
        </mxCell>
        <mxCell id="GphbjgsX8QSrk0KPlg3Y-3" value="+ field: type" style="text;strokeColor=none;fillColor=none;align=left;verticalAlign=top;spacingLeft=4;spacingRight=4;overflow=hidden;rotatable=0;points=[[0,0.5],[1,0.5]];portConstraint=eastwest;" vertex="1" parent="GphbjgsX8QSrk0KPlg3Y-2">
          <mxGeometry y="26" width="480" height="26" as="geometry" />
        </mxCell>
        <mxCell id="GphbjgsX8QSrk0KPlg3Y-4" value="" style="line;strokeWidth=1;fillColor=none;align=left;verticalAlign=middle;spacingTop=-1;spacingLeft=3;spacingRight=3;rotatable=0;labelPosition=right;points=[];portConstraint=eastwest;" vertex="1" parent="GphbjgsX8QSrk0KPlg3Y-2">
          <mxGeometry y="52" width="480" height="8" as="geometry" />
        </mxCell>
        <mxCell id="GphbjgsX8QSrk0KPlg3Y-5" value="+ virtual void RunTaskInQueue(const std::function&lt;void()&gt;&amp; task) = 0&#xa;+ virtual get_queue_name() const: std::string&#xa;+ SyncTaskQueue(const std::function&lt;void()&gt;&amp; task): void&#xa;" style="text;strokeColor=none;fillColor=none;align=left;verticalAlign=top;spacingLeft=4;spacingRight=4;overflow=hidden;rotatable=0;points=[[0,0.5],[1,0.5]];portConstraint=eastwest;" vertex="1" parent="GphbjgsX8QSrk0KPlg3Y-2">
          <mxGeometry y="60" width="480" height="60" as="geometry" />
        </mxCell>
        <mxCell id="GphbjgsX8QSrk0KPlg3Y-6" value="SerialTaskQueue" style="swimlane;fontStyle=1;align=center;verticalAlign=top;childLayout=stackLayout;horizontal=1;startSize=26;horizontalStack=0;resizeParent=1;resizeParentMax=0;resizeLast=0;collapsible=1;marginBottom=0;" vertex="1" parent="1">
          <mxGeometry x="120" y="240" width="480" height="228" as="geometry" />
        </mxCell>
        <mxCell id="GphbjgsX8QSrk0KPlg3Y-7" value="+ queue_name_: std::string&#xa;+ task_queue: std::queue&lt;std::function&lt;void()&gt;&gt;&#xa;+ task_mutex_: std::mutex_&#xa;+ task_cond_: std::condition_variable&#xa;+ stop_: bool&#xa;+ thr_ : std::thread&#xa;" style="text;strokeColor=none;fillColor=none;align=left;verticalAlign=top;spacingLeft=4;spacingRight=4;overflow=hidden;rotatable=0;points=[[0,0.5],[1,0.5]];portConstraint=eastwest;" vertex="1" parent="GphbjgsX8QSrk0KPlg3Y-6">
          <mxGeometry y="26" width="480" height="134" as="geometry" />
        </mxCell>
        <mxCell id="GphbjgsX8QSrk0KPlg3Y-8" value="" style="line;strokeWidth=1;fillColor=none;align=left;verticalAlign=middle;spacingTop=-1;spacingLeft=3;spacingRight=3;rotatable=0;labelPosition=right;points=[];portConstraint=eastwest;" vertex="1" parent="GphbjgsX8QSrk0KPlg3Y-6">
          <mxGeometry y="160" width="480" height="8" as="geometry" />
        </mxCell>
        <mxCell id="GphbjgsX8QSrk0KPlg3Y-9" value="+ virtual void RunTaskInQueue(const std::function&lt;void()&gt;&amp; task) = 0&#xa;+ virtual get_queue_name() const: std::string&#xa;+ WaitAllTaskFinished(): void" style="text;strokeColor=none;fillColor=none;align=left;verticalAlign=top;spacingLeft=4;spacingRight=4;overflow=hidden;rotatable=0;points=[[0,0.5],[1,0.5]];portConstraint=eastwest;" vertex="1" parent="GphbjgsX8QSrk0KPlg3Y-6">
          <mxGeometry y="168" width="480" height="60" as="geometry" />
        </mxCell>
        <mxCell id="GphbjgsX8QSrk0KPlg3Y-10" value="" style="endArrow=block;endSize=16;endFill=0;html=1;rounded=0;exitX=0.5;exitY=0;exitDx=0;exitDy=0;" edge="1" parent="1" source="GphbjgsX8QSrk0KPlg3Y-6">
          <mxGeometry width="160" relative="1" as="geometry">
            <mxPoint x="340" y="220" as="sourcePoint" />
            <mxPoint x="360" y="160" as="targetPoint" />
          </mxGeometry>
        </mxCell>
      </root>
    </mxGraphModel>
  </diagram>
</mxfile>
